# xmcd
#
# Track frame offsets:
#	150
#	15510
#	34710
#	49347
#	63915
#	76490
#	92475
#	104770
#	121035
#	140147
#	156090
#	176350
#	196670
#	211977
#	228120
#	243352
#
# Disc length: 3440
#
# Revision: 2
# Processed by: cddbd v1.5.1PL0 Copyright (c) Steve Scherf et al.
# Submitted via: audiograbber 1.80
# Normalized: r1:DSETVAR1
#
DISCID=c90d6e10
DTITLE=Various Artist - The Best Ever Golden Guitars Album - Disc 2
DYEAR=1900
DGENRE=
TTITLE0=The Flying Emus - Emu Strut
TTITLE1=Deniese Morrison - Now I'm Easy
TTITLE2=John Williamson - Mallee Boy
TTITLE3=Evelyn Bury - I'm Stronger Than I Look
TTITLE4=Smokey Dawson and Trevor Knight - The Days Of Old Khancoban
TTITLE5=James Blundell - Age Of Grace
TTITLE6=Keith Urban - Clutterbilly
TTITLE7=Colin Buchanan - Galahs In The Gidgee
TTITLE8=Lee kernaghan - Three Chain Road
TTITLE9=Gina Jeffreys - Two Stars Fell
TTITLE10=Graeme Connors - The Road Less Travelled
TTITLE11=Tania and Lee Kernaghan - A Bushman Can't Survive
TTITLE12=The Wheel - Saw You Runnin'
TTITLE13=Troy Cassar-Daley - Little Things
TTITLE14=Dead Ringer Band - Saddle Boy
TTITLE15=Adam Brand - Last Man Standing
EXTD=
EXTT0=
EXTT1=
EXTT2=
EXTT3=
EXTT4=
EXTT5=
EXTT6=
EXTT7=
EXTT8=
EXTT9=
EXTT10=
EXTT11=
EXTT12=
EXTT13=
EXTT14=
EXTT15=
PLAYORDER=
